# xmcd
#
# Track frame offsets: 
#        200
#        13592
#        38025
#        55512
#        70225
#        84592
#        106667
#        125382
#        147115
#        160865
#
# Disc length: 2334 seconds
#
# Revision: 2
# Processed by: cddbd v1.5PL3 Copyright (c) Steve Scherf et al.
# Submitted via: ExactAudioCopy v0.95a3
#
DISCID=74091c0a
DTITLE=Dan Seals - In A Quiet Room
DYEAR=1994
DGENRE=Country
TTITLE0=I'd Really Love To See You Tonight
TTITLE1=Everything That Glitters (Is Not Gold)
TTITLE2=Big Wheels In The Moonlight
TTITLE3=One Friend
TTITLE4=Bop
TTITLE5=You Still Move Me
TTITLE6=Love Is The Answer
TTITLE7=They Rage On
TTITLE8=The Healing Kind
TTITLE9=Don't Believe I'd Fall In Love Again
EXTD=
EXTT0=
EXTT1=
EXTT2=
EXTT3=
EXTT4=
EXTT5=
EXTT6=
EXTT7=
EXTT8=
EXTT9=
PLAYORDER=
